<svg width="24" height="24" viewBox="0 0 24 24" fill="none" xmlns="http://www.w3.org/2000/svg">
<g clip-path="url(#clip0_525_90)">
<path d="M15.8246 11.1376H12.8246V8.1751C12.8246 7.7251 12.4496 7.3501 11.9621 7.3501C11.5121 7.3501 11.1371 7.7251 11.1371 8.2126V11.1751H8.17461C7.72461 11.1751 7.34961 11.5501 7.34961 12.0376C7.34961 12.4876 7.72461 12.8626 8.21211 12.8626H11.1746V15.8251C11.1746 16.2751 11.5496 16.6501 12.0371 16.6501C12.4871 16.6501 12.8621 16.2751 12.8621 15.7876V12.8251H15.8246C16.2746 12.8251 16.6496 12.4501 16.6496 11.9626C16.6496 11.5126 16.2746 11.1376 15.8246 11.1376Z" fill="#2D68F8"/>
<path d="M11.9998 0.675049C5.7373 0.675049 0.674805 5.73755 0.674805 12C0.674805 18.2625 5.7748 23.3625 12.0373 23.3625C18.2998 23.3625 23.3998 18.2625 23.3998 12C23.3623 5.73755 18.2623 0.675049 11.9998 0.675049ZM11.9998 21.675C6.67481 21.675 2.3623 17.325 2.3623 12C2.3623 6.67505 6.67481 2.36255 11.9998 2.36255C17.3248 2.36255 21.6748 6.67505 21.6748 12C21.6748 17.325 17.3248 21.675 11.9998 21.675Z" fill="#2D68F8"/>
</g>
<defs>
<clipPath id="clip0_525_90">
<rect width="24" height="24" fill="white"/>
</clipPath>
</defs>
</svg>
