<svg width="24" height="24" viewBox="0 0 24 24" fill="none" xmlns="http://www.w3.org/2000/svg">
<path d="M13.2 12.0001L22.35 2.8501C22.6875 2.5126 22.6875 1.9876 22.35 1.6501C22.0125 1.3126 21.4875 1.3126 21.15 1.6501L12 10.8001L2.85 1.6501C2.5125 1.3126 1.9875 1.3126 1.65 1.6501C1.3125 1.9876 1.3125 2.5126 1.65 2.8501L10.8 12.0001L1.65 21.1501C1.3125 21.4876 1.3125 22.0126 1.65 22.3501C1.8 22.5001 2.025 22.6126 2.25 22.6126C2.475 22.6126 2.7 22.5376 2.85 22.3501L12 13.2001L21.15 22.3501C21.3 22.5001 21.525 22.6126 21.75 22.6126C21.975 22.6126 22.2 22.5376 22.35 22.3501C22.6875 22.0126 22.6875 21.4876 22.35 21.1501L13.2 12.0001Z" fill="#111928"/>
</svg>
