<svg width="33" height="33" viewBox="0 0 33 33" fill="none" xmlns="http://www.w3.org/2000/svg">
<path d="M25.214 4.5374H21.2437V3.66084C21.2437 2.11396 20.0062 0.876465 18.4593 0.876465H14.489C12.9421 0.876465 11.7046 2.11396 11.7046 3.66084V4.5374H7.73428C6.23896 4.5374 5.00146 5.7749 5.00146 7.27022V8.81709C5.00146 9.95147 5.67178 10.8796 6.65146 11.2921L7.47646 29.1327C7.57959 30.8343 8.92022 32.1233 10.6218 32.1233H22.2233C23.9249 32.1233 25.3171 30.7827 25.3687 29.1327L26.2968 11.2405C27.2765 10.828 27.9468 9.84834 27.9468 8.76553V7.21865C27.9468 5.7749 26.7093 4.5374 25.214 4.5374ZM14.0765 3.66084C14.0765 3.40303 14.2827 3.19678 14.5405 3.19678H18.5108C18.7687 3.19678 18.9749 3.40303 18.9749 3.66084V4.5374H14.128V3.66084H14.0765ZM7.37334 7.27022C7.37334 7.06397 7.52803 6.85772 7.78584 6.85772H25.214C25.4202 6.85772 25.6265 7.0124 25.6265 7.27022V8.81709C25.6265 9.02334 25.4718 9.22959 25.214 9.22959H7.78584C7.57959 9.22959 7.37334 9.0749 7.37334 8.81709V7.27022ZM22.2749 29.803H10.7249C10.2608 29.803 9.8999 29.4421 9.8999 29.0296L9.0749 11.5499H23.9765L23.1515 29.0296C23.0999 29.4421 22.739 29.803 22.2749 29.803Z" fill="#111928"/>
<path d="M16.4999 16.0356C15.8812 16.0356 15.314 16.5513 15.314 17.2216V25.2138C15.314 25.8325 15.8296 26.3997 16.4999 26.3997C17.1187 26.3997 17.6858 25.8841 17.6858 25.2138V17.17C17.6858 16.5513 17.1187 16.0356 16.4999 16.0356Z" fill="#111928"/>
<path d="M21.2951 17.0158C20.6763 16.9642 20.1091 17.4798 20.0576 18.0986L19.7482 24.0283C19.6966 24.647 20.2123 25.2142 20.831 25.2658H20.8826C21.5013 25.2658 22.0169 24.8017 22.0169 24.183L22.3263 18.2533C22.4294 17.583 21.9138 17.0673 21.2951 17.0158Z" fill="#111928"/>
<path d="M11.6533 17.0158C11.0345 17.0673 10.5189 17.583 10.5705 18.2533L10.9314 24.2345C10.983 24.8533 11.4986 25.3173 12.0658 25.3173H12.1173C12.7361 25.2658 13.2517 24.7501 13.2001 24.0798L12.8908 18.0986C12.8392 17.4798 12.272 16.9642 11.6533 17.0158Z" fill="#111928"/>
</svg>
